<svg width="100%" height="90" viewBox="0 0 34 53" fill="none" xmlns="http://www.w3.org/2000/svg"><path d="M32.5085 33.833V26.9883C32.7527 26.7397 32.9271 26.4023 32.9184 25.9318C32.9097 25.4702 32.7265 25.0085 32.5085 24.6268V18.1727C32.7701 17.9152 32.9184 17.5246 32.9184 17.0008C32.9184 16.6102 32.7265 16.1397 32.5085 15.7224V10.7864C32.7178 10.5734 32.8312 10.2449 32.8312 9.80101C32.8312 9.41926 32.6829 9.03752 32.5085 8.71792V8.10536C32.5085 3.63987 28.9323 0 24.5449 0C21.7363 0 19.1981 1.45595 17.7152 3.93283L17.5059 4.31457C16.9913 4.60754 16.9041 4.77621 16.8604 4.87387C16.7122 5.19347 16.6598 5.50419 16.6947 5.7794L14.2263 10.2271C13.8861 10.3958 13.5459 10.6178 13.3889 10.9107C13.1272 11.3901 13.0924 11.7985 13.1621 12.1447L9.79528 18.2082C9.28938 18.4657 8.74859 18.8829 8.53925 19.531C8.42586 19.895 8.43458 20.2323 8.51308 20.5164L4.11698 28.4442C3.70703 29.0657 3.34069 29.7226 3.02668 30.4151L2.93946 30.566L2.9569 30.5749C2.49461 31.6047 2.11955 32.6966 1.87532 33.8419H0V40.5978H1.8666C3.40174 47.8332 9.63828 53 17 53C24.3617 53 30.5983 47.8332 32.1334 40.5889H34V33.833H32.5085ZM30.4413 7.70586C30.45 7.83903 30.4587 7.97219 30.4587 8.10536V8.29179C27.903 5.64623 24.9112 4.93601 22.4428 4.93601C21.2304 4.93601 20.1575 5.10469 19.3114 5.3L19.4859 4.9804C19.5644 4.84724 19.6516 4.73183 19.7388 4.60754C21.7973 4.24355 27.1093 3.77303 30.4413 7.70586ZM11.9323 18.59C14.8281 17.8442 24.2832 16.1663 30.4587 23.6147V24.8221C26.3766 20.1524 21.5008 18.8829 17.4536 18.8829C14.9415 18.8829 12.7522 19.3623 11.2519 19.8062L11.9323 18.59ZM30.4587 15.7935C27.1529 12.1003 23.0446 11.1593 19.7476 11.1593C18.2037 11.1593 16.8517 11.3635 15.8225 11.5854L16.3284 10.6799C18.8055 10.2094 25.7486 9.46365 30.4674 14.6749V15.7935H30.4587ZM18.6136 6.56064C20.646 5.93032 26.3679 4.74958 30.4674 9.85427V13.2101C25.9492 8.93099 19.9482 9.09966 16.9738 9.52579L18.6136 6.56064ZM15.1334 12.8194C17.7676 12.1003 25.3822 10.7509 30.4587 17.4092V22.0611C24.5187 15.7935 16.276 16.6013 12.6126 17.3648L15.1334 12.8194ZM10.528 21.129C13.5459 20.0015 23.3935 17.276 30.4674 26.4379V29.3941C27.7896 24.5735 22.7481 21.4219 17.0087 21.4219C14.1565 21.4219 11.4787 22.2032 9.17599 23.5792L10.528 21.129ZM30.0139 5.80603C27.0395 3.32915 23.2365 3.1871 20.8466 3.41792C21.8758 2.56566 23.1668 2.08626 24.5449 2.08626C27.0046 2.08626 29.1154 3.62211 30.0139 5.80603ZM31.9502 38.5027H30.4151L30.2755 39.3816C29.2288 46.0665 23.6465 50.9137 17 50.9137C10.3535 50.9137 4.77116 46.0665 3.72447 39.3816L3.58492 38.5027H2.04977V35.9193H3.58492L3.72447 35.0404C3.91637 33.7886 4.27399 32.599 4.77116 31.4982L5.93125 29.403C8.3648 25.7987 12.4295 23.5082 17 23.5082C23.6465 23.5082 29.2288 28.3554 30.2755 35.0404L30.4151 35.9193H31.9502V38.5027Z" fill="#1A47B0"></path></svg>
