<svg width="218" height="220" viewBox="0 0 218 220" fill="none" xmlns="http://www.w3.org/2000/svg"><g clip-path="url(#clip0)"><path d="M114.325 220C92.2416 220 70.995 210.205 54.502 192.422C39.0136 175.728 28.7067 153.113 25.2834 128.43H10.6602V91.5604H25.2927C28.716 66.878 39.0229 44.2626 54.5113 27.5687C70.995 9.79474 92.2416 0 114.325 0C136.409 0 157.656 9.79474 174.149 27.578C189.637 44.2719 199.944 66.8873 203.367 91.5697H218V128.44H203.367C199.944 153.122 189.637 175.737 174.149 192.431C157.656 210.215 136.409 220 114.325 220ZM18.102 120.991H31.8974L32.2695 124.296C37.9439 174.611 73.2276 212.561 114.335 212.561C155.442 212.561 190.725 174.62 196.4 124.296L196.772 120.991H210.567V99.0182H196.772L196.4 95.7129C190.716 45.3891 155.432 7.44847 114.325 7.44847C73.2183 7.44847 37.9346 45.3891 32.2602 95.7129L31.8881 99.0182H18.102V120.991Z" fill="#0050C9"></path><path d="M44.1678 55.1467C43.7399 55.1467 43.3027 54.9977 42.9492 54.6904L40.8375 52.8656C40.0655 52.1952 39.9724 51.0127 40.6515 50.24C41.3213 49.4672 42.4934 49.3741 43.2747 50.0538L45.3864 51.8786C46.1585 52.549 46.2515 53.7314 45.5724 54.5042C45.2096 54.9232 44.6887 55.1467 44.1678 55.1467Z" fill="#0050C9"></path><path d="M169.349 163.634C168.921 163.634 168.484 163.485 168.13 163.177L163.953 159.565C163.181 158.895 163.088 157.712 163.767 156.939C164.437 156.167 165.609 156.073 166.391 156.753L170.567 160.366C171.339 161.036 171.432 162.218 170.753 162.991C170.391 163.42 169.87 163.634 169.349 163.634ZM158.911 154.593C158.484 154.593 158.046 154.444 157.693 154.137L153.516 150.524C152.744 149.854 152.651 148.672 153.33 147.899C154 147.126 155.181 147.033 155.953 147.713L160.13 151.325C160.902 151.995 160.995 153.178 160.316 153.951C159.953 154.379 159.442 154.593 158.911 154.593ZM148.484 145.553C148.056 145.553 147.618 145.404 147.265 145.096L143.088 141.484C142.307 140.813 142.223 139.631 142.902 138.858C143.572 138.085 144.753 137.992 145.525 138.672L149.702 142.285C150.484 142.955 150.567 144.137 149.888 144.91C149.525 145.338 149.005 145.553 148.484 145.553ZM138.056 136.512C137.628 136.512 137.191 136.363 136.837 136.056L132.66 132.443C131.888 131.773 131.795 130.59 132.474 129.818C133.144 129.045 134.316 128.952 135.098 129.631L139.274 133.244C140.046 133.914 140.139 135.097 139.46 135.87C139.088 136.298 138.577 136.512 138.056 136.512ZM127.618 127.471C127.191 127.471 126.753 127.322 126.4 127.015L122.223 123.403C121.451 122.732 121.358 121.55 122.037 120.777C122.707 120.004 123.879 119.911 124.66 120.591L128.837 124.203C129.609 124.874 129.702 126.056 129.023 126.829C128.66 127.257 128.139 127.471 127.618 127.471ZM117.191 118.431C116.763 118.431 116.325 118.282 115.972 117.975L111.795 114.362C111.023 113.692 110.93 112.509 111.609 111.736C112.279 110.964 113.451 110.871 114.232 111.55L118.409 115.163C119.181 115.833 119.274 117.016 118.595 117.788C118.232 118.217 117.711 118.431 117.191 118.431ZM106.753 109.39C106.325 109.39 105.888 109.241 105.535 108.934L101.358 105.321C100.586 104.651 100.493 103.469 101.172 102.696C101.842 101.923 103.014 101.83 103.795 102.51L107.972 106.122C108.744 106.793 108.837 107.975 108.158 108.748C107.795 109.176 107.284 109.39 106.753 109.39ZM96.3254 100.35C95.8975 100.35 95.4603 100.201 95.1068 99.8934L90.9301 96.2809C90.158 95.6105 90.065 94.4281 90.744 93.6553C91.4138 92.8825 92.5859 92.7894 93.3673 93.4691L97.544 97.0816C98.3161 97.7519 98.4092 98.9344 97.7301 99.7072C97.3673 100.126 96.8464 100.35 96.3254 100.35ZM85.8975 91.309C85.4696 91.309 85.0324 91.16 84.6789 90.8528L80.5022 87.2403C79.7301 86.5699 79.6371 85.3875 80.3161 84.6147C80.9859 83.8419 82.1673 83.7488 82.9394 84.4285L87.1161 88.041C87.8882 88.7113 87.9812 89.8938 87.3022 90.6666C86.9301 91.0855 86.4185 91.309 85.8975 91.309ZM75.4603 82.2684C75.0324 82.2684 74.5952 82.1195 74.2417 81.8122L70.065 78.1997C69.2836 77.5293 69.1999 76.3469 69.8789 75.5741C70.5487 74.8013 71.7301 74.7082 72.5022 75.3879L76.6789 79.0004C77.4603 79.6708 77.544 80.8532 76.865 81.626C76.5022 82.045 75.9812 82.2684 75.4603 82.2684ZM65.0324 73.2278C64.6045 73.2278 64.1673 73.0789 63.8138 72.7716L59.6371 69.1591C58.865 68.4887 58.7719 67.3063 59.451 66.5335C60.1208 65.7607 61.2929 65.6676 62.0743 66.3473L66.251 69.9598C67.0231 70.6302 67.1161 71.8126 66.4371 72.5854C66.0743 73.0044 65.5533 73.2278 65.0324 73.2278ZM54.5952 64.1872C54.1673 64.1872 53.7301 64.0383 53.3766 63.731L49.1998 60.1185C48.4278 59.4482 48.3347 58.2657 49.0138 57.4929C49.6836 56.7202 50.8557 56.627 51.6371 57.3067L55.8138 60.9099C56.5859 61.5803 56.6789 62.7627 55.9999 63.5355C55.6371 63.9638 55.1161 64.1872 54.5952 64.1872Z" fill="#0050C9"></path><path d="M177.712 170.887C177.284 170.887 176.847 170.738 176.493 170.43L174.382 168.606C173.61 167.935 173.526 166.753 174.196 165.98C174.865 165.207 176.047 165.123 176.819 165.794L178.93 167.619C179.703 168.289 179.786 169.471 179.116 170.244C178.754 170.672 178.242 170.887 177.712 170.887Z" fill="#0050C9"></path><path d="M193.665 180.371L191.229 183.186L214.493 203.348L216.929 200.532L193.665 180.371Z" fill="#0050C9"></path><path d="M185.646 175.905C187.814 179.862 190.028 185.318 190.633 189.592L193.33 182.562L199.898 178.884C195.591 178.903 189.87 177.488 185.646 175.905Z" fill="#0050C9"></path><path d="M32.3256 45.6405L14.0744 30.2408H0V26.5165H15.4326L34.7256 42.7915L32.3256 45.6405Z" fill="#0050C9"></path><path d="M40.3997 50.0072C36.1578 48.4803 30.4183 47.1488 26.1113 47.214L32.6323 43.4525L35.2369 36.3858C35.8881 40.6501 38.1764 46.0874 40.3997 50.0072Z" fill="#0050C9"></path><path d="M1.73047 48.2009V32.6802H8.2421C13.1258 32.6802 16.6328 35.613 16.6328 40.4266C16.6328 45.2402 13.1258 48.2009 8.2607 48.2009H1.73047ZM12.5398 40.4266C12.5398 38.0338 11.0979 36.1716 8.2607 36.1716H5.73047V44.7095H8.2421C10.9584 44.7095 12.5398 42.7263 12.5398 40.4266Z" fill="#0050C9"></path><path d="M14.3818 95.2939V98.9809L18.0563 95.2939H14.3818Z" fill="#0050C9"></path><path d="M75.4883 32.5405L36.9395 71.1329C35.4325 74.1402 34.0744 77.2314 32.9209 80.4249L84.7535 28.5463C81.5721 29.6915 78.4837 31.0322 75.4883 32.5405Z" fill="#0050C9"></path><path d="M106.875 23.6582L14.3818 116.233V121.503L112.419 23.3789C110.559 23.4161 108.707 23.5093 106.875 23.6582Z" fill="#0050C9"></path><path d="M128.531 24.5148L28.4189 124.715H28.9771C29.2003 126.037 29.4608 127.35 29.7492 128.644L132.949 25.362C131.489 25.0362 130.01 24.7662 128.531 24.5148Z" fill="#0050C9"></path><path d="M146.158 29.4028L33.7949 141.856C34.2879 143.104 34.8089 144.342 35.3577 145.562L149.851 30.967C148.632 30.4177 147.404 29.8963 146.158 29.4028Z" fill="#0050C9"></path><path d="M161.041 37.0282L41.4229 156.753C42.1019 157.815 42.8089 158.867 43.5438 159.9L164.195 39.1417C163.153 38.4248 162.102 37.7172 161.041 37.0282Z" fill="#0050C9"></path><path d="M173.675 46.9161L51.3027 169.397C52.1492 170.3 53.0237 171.185 53.9074 172.05L176.326 49.523C175.461 48.6385 174.577 47.7633 173.675 46.9161Z" fill="#0050C9"></path><path d="M184.223 58.8802L63.2461 179.964C64.26 180.709 65.2926 181.436 66.3438 182.134L186.39 61.9806C185.693 60.9285 184.967 59.895 184.223 58.8802Z" fill="#0050C9"></path><path d="M192.632 72.9951L77.3486 188.381C78.5486 188.949 79.7672 189.489 80.9951 190.001L194.251 76.6355C193.739 75.4065 193.2 74.1961 192.632 72.9951Z" fill="#0050C9"></path><path d="M198.493 89.661L93.9902 194.247C95.4228 194.591 96.8647 194.908 98.3158 195.178L199.413 93.9904C199.144 92.538 198.837 91.0948 198.493 89.661Z" fill="#0050C9"></path><path d="M214.279 96.3832L114.093 196.658C114.176 196.658 114.251 196.668 114.325 196.668C116.074 196.668 117.795 196.593 119.516 196.491L214.27 101.653V96.3832H214.279Z" fill="#0050C9"></path><path d="M149.163 189.35L193.582 144.891C194.8 142.126 195.879 139.296 196.809 136.4L140.688 192.571C143.582 191.64 146.409 190.56 149.163 189.35Z" fill="#0050C9"></path><path d="M213.749 124.715L214.279 124.185V118.915L208.483 124.715H213.749Z" fill="#0050C9"></path><path d="M114.325 200.392C71.2369 200.392 34.5392 170.319 25.8974 128.43H10.6602V91.5604H25.9067C34.5485 49.672 71.2369 19.5988 114.335 19.5988C157.432 19.5988 194.121 49.672 202.762 91.5604H218.009V128.43H202.762C194.111 170.319 157.414 200.392 114.325 200.392ZM18.102 120.991H32.1299L32.6602 124.092C39.4788 163.987 73.823 192.953 114.335 192.953C154.846 192.953 189.19 163.997 196.009 124.092L196.539 120.991H210.567V99.0182H196.539L196.009 95.9177C189.19 56.0219 154.846 27.0566 114.335 27.0566C73.823 27.0566 39.4788 56.0125 32.6602 95.9177L32.1299 99.0182H18.102V120.991Z" fill="#0050C9"></path></g><defs><clipPath id="clip0"><rect width="218" height="220" fill="white"></rect></clipPath></defs></svg>
