<svg width="100%" height="90" viewBox="0 0 32 53" fill="none" xmlns="http://www.w3.org/2000/svg">
    <path
        d="M15.4165 0L0.510541 21.7948H0V22.8601C0 26.4379 2.87179 29.3675 6.48205 29.5894L0.291738 49.9727C0.109402 50.5941 0 51.2511 0 51.9258V52.9911H32V52.9467V51.9258V22.8601V21.7948V0H15.4165ZM2.32479 23.9255H29.6752C29.1829 25.9585 27.2957 27.4765 25.0621 27.4765H17.6957V47.3094H25.0621C27.2775 47.3094 29.1464 48.8008 29.657 50.8161H2.34302C2.85356 48.8097 4.72251 47.3094 6.93789 47.3094H14.3043V27.4765H6.93789C4.70427 27.4765 2.81709 25.9585 2.32479 23.9255ZM25.0621 45.1698H19.8929V45.0012L22.792 29.6161H25.0621C26.8946 29.6161 28.563 28.9147 29.8028 27.7784V47.0075C28.563 45.8712 26.8946 45.1698 25.0621 45.1698ZM19.8929 40.9618V29.6161H22.4L19.8929 40.9618ZM8.77037 29.6161H12.1071V45.1698H6.93789C5.81652 45.1698 4.75897 45.4362 3.81994 45.8978L8.77037 29.6161ZM3.1453 21.7948L16.5835 2.13953H29.8028V21.7948H3.1453Z"
        fill="#1A47B0"></path>
</svg>
