<svg width="190" height="220" viewBox="0 0 190 220" fill="none" xmlns="http://www.w3.org/2000/svg">
    <path
        d="M78.8311 210.216V195.496H87.1305C90.0287 195.496 91.4076 197.394 91.4076 199.249C91.4076 201.077 90.2922 202.313 88.9045 202.622C90.459 202.86 91.6886 204.361 91.6886 206.216C91.6886 208.353 90.2658 210.207 87.3852 210.207H78.8311V210.216ZM87.5696 199.911C87.5696 199.204 87.0427 198.692 86.2786 198.692H82.6163V201.138H86.2786C87.0427 201.147 87.5696 200.644 87.5696 199.911ZM87.8506 205.695C87.8506 204.971 87.3237 204.37 86.4015 204.37H82.6075V207.019H86.4015C87.3061 207.019 87.8506 206.49 87.8506 205.695Z"
        fill="#0050C9"></path>
    <path d="M18.3202 93.2664V81.8576H14.2188V78.5462H26.1805V81.8576H22.0966V93.2664H18.3202Z" fill="#0050C9"></path>
    <path d="M5.26982 190.418H1.75684V218.252H5.26982V190.418Z" fill="#0050C9"></path>
    <path d="M167.816 190.418H164.303V218.252H167.816V190.418Z" fill="#0050C9"></path>
    <path d="M189.35 187.672H166.445V191.204H189.35V187.672Z" fill="#0050C9"></path>
    <path d="M189.35 30.4207H166.445V33.9528H189.35V30.4207Z" fill="#0050C9"></path>
    <path d="M157.584 211.514H12.9541V215.046H157.584V211.514Z" fill="#0050C9"></path>
    <path
        d="M4.4707 213.28C8.45795 214.772 13.4113 217.307 16.4851 220L14.0699 213.28L16.4851 206.56C13.4113 209.253 8.46673 211.788 4.4707 213.28Z"
        fill="#0050C9"></path>
    <path
        d="M166.059 213.28C162.072 214.772 157.119 217.307 154.045 220L156.46 213.28L154.045 206.56C157.119 209.253 162.072 211.788 166.059 213.28Z"
        fill="#0050C9"></path>
    <path d="M17.31 32.1867L3.5127 46.0681V51.0572L22.2808 32.1867H17.31Z" fill="#0050C9"></path>
    <path d="M38.5636 32.1867L7.48242 63.4374H12.4533L43.5257 32.1867H38.5636Z" fill="#0050C9"></path>
    <path d="M59.8087 32.1867L28.7363 63.4374H33.6984L64.7796 32.1867H59.8087Z" fill="#0050C9"></path>
    <path d="M81.0616 32.1867L49.9805 63.4374H54.9513L86.0325 32.1867H81.0616Z" fill="#0050C9"></path>
    <path d="M102.315 32.1867L69.4336 65.2388V70.2368L107.277 32.1867H102.315Z" fill="#0050C9"></path>
    <path d="M123.56 32.1867L69.4336 86.6083V91.6063L128.531 32.1867H123.56Z" fill="#0050C9"></path>
    <path d="M100.515 76.7271L69.4336 107.978V112.967L100.515 81.7251V76.7271Z" fill="#0050C9"></path>
    <path d="M19.4968 158.196L3.5127 174.259V179.257L24.4589 158.196H19.4968Z" fill="#0050C9"></path>
    <path d="M118.703 63.4374L149.776 32.1867H144.814L113.732 63.4374H118.703Z" fill="#0050C9"></path>
    <path d="M40.7413 158.196L9.66895 189.438H14.631L45.7122 158.196H40.7413Z" fill="#0050C9"></path>
    <path d="M139.948 63.4374L166.445 36.805V32.1867H166.059L134.986 63.4374H139.948Z" fill="#0050C9"></path>
    <path d="M100.515 98.0966L69.4336 129.338V134.336L100.515 103.086V98.0966Z" fill="#0050C9"></path>
    <path d="M100.515 119.457L69.4336 150.708V155.706L100.515 124.455V119.457Z" fill="#0050C9"></path>
    <path d="M61.9952 158.196L30.9141 189.438H35.8849L66.9573 158.196H61.9952Z" fill="#0050C9"></path>
    <path d="M161.202 63.4374L166.445 58.1657V53.1765L156.231 63.4374H161.202Z" fill="#0050C9"></path>
    <path d="M100.515 140.827L52.168 189.438H57.1301L100.515 145.816V140.827Z" fill="#0050C9"></path>
    <path d="M104.493 158.196L73.4121 189.438H78.383L109.464 158.196H104.493Z" fill="#0050C9"></path>
    <path d="M125.747 158.196L94.666 189.438H99.6369L130.709 158.196H125.747Z" fill="#0050C9"></path>
    <path d="M151.963 158.196H146.992L115.92 189.438H120.882L151.963 158.196Z" fill="#0050C9"></path>
    <path d="M142.135 189.438L166.445 164.996V160.006L137.164 189.438H142.135Z" fill="#0050C9"></path>
    <path d="M163.38 189.438L166.445 186.365V181.367L158.418 189.438H163.38Z" fill="#0050C9"></path>
    <path
        d="M169.958 192.97H0V154.655H65.9212V66.9695H0V28.6545H169.958V66.9695H104.037V154.655H169.958V192.97ZM7.02598 185.906H162.932V161.719H97.0112V59.9052H162.932V35.7188H7.02598V59.9052H72.9472V161.719H7.02598V185.906Z"
        fill="#0050C9"></path>
    <path d="M185.073 42.1474H181.56V179.371H185.073V42.1474Z" fill="#0050C9"></path>
    <path
        d="M183.316 33.6261C181.832 37.6351 179.311 42.6154 176.633 45.7061L183.316 43.2777L190 45.7061C187.321 42.6154 184.801 37.6351 183.316 33.6261Z"
        fill="#0050C9"></path>
    <path
        d="M183.316 187.902C181.832 183.893 179.311 178.912 176.633 175.822L183.316 178.25L190 175.822C187.321 178.912 184.801 183.893 183.316 187.902Z"
        fill="#0050C9"></path>
    <path d="M35.4544 74.8463H31.9414V95.5888H35.4544V74.8463Z" fill="#0050C9"></path>
    <path
        d="M33.6981 66.3161C32.2139 70.3251 29.6933 75.3055 27.0146 78.3961L33.6981 75.9677L40.3816 78.3961C37.7029 75.3055 35.1823 70.3251 33.6981 66.3161Z"
        fill="#0050C9"></path>
    <path d="M35.4544 0H31.9414V20.7426H35.4544V0Z" fill="#0050C9"></path>
    <path
        d="M33.6981 29.2727C32.2139 25.2637 29.6933 20.2834 27.0146 17.1927L33.6981 19.6211L40.3816 17.1927C37.7029 20.2834 35.1823 25.2637 33.6981 29.2727Z"
        fill="#0050C9"></path>
    <path d="M58.4824 134.504H46.7578V138.036H58.4824V134.504Z" fill="#0050C9"></path>
    <path
        d="M66.9578 136.27C62.9705 137.763 58.0172 140.297 54.9434 142.99L57.3585 136.27L54.9434 129.55C58.0172 132.244 62.9705 134.787 66.9578 136.27Z"
        fill="#0050C9"></path>
    <path d="M130.718 134.504H111.607V138.036H130.718V134.504Z" fill="#0050C9"></path>
    <path
        d="M103.124 136.27C107.111 137.763 112.065 140.297 115.138 142.99L112.723 136.27L115.138 129.55C112.065 132.244 107.111 134.787 103.124 136.27Z"
        fill="#0050C9"></path>
    <path
        d="M175.43 122.098V116.181H169.353V122.098H165.576V107.377H169.353V112.87H175.43V107.377H179.207V122.098H175.43V122.098Z"
        fill="#0050C9"></path>
    <path
        d="M117.062 129.912L119.055 127.069C120.109 128.129 121.734 129.012 123.727 129.012C125.018 129.012 125.809 128.5 125.809 127.793C125.809 125.789 117.509 127.396 117.509 121.727C117.509 119.254 119.591 117.047 123.35 117.047C125.695 117.047 127.741 117.753 129.296 119.095L127.232 121.806C126.002 120.791 124.404 120.287 122.955 120.287C121.857 120.287 121.374 120.729 121.374 121.347C121.374 123.219 129.647 121.85 129.647 127.325C129.647 130.283 127.478 132.244 123.543 132.244C120.601 132.253 118.537 131.325 117.062 129.912Z"
        fill="#0050C9"></path>
</svg>
