<svg width="232" height="220" viewBox="0 0 232 220" fill="none" xmlns="http://www.w3.org/2000/svg">
    <g clip-path="url(#clip0)">
        <path
            d="M1.56152 24.552V9.03125H8.06741C12.9468 9.03125 16.4507 11.9641 16.4507 16.7777C16.4507 21.5912 12.9468 24.552 8.086 24.552H1.56152V24.552ZM12.3706 16.787C12.3706 14.3942 10.93 12.532 8.0953 12.532H5.558V21.0698H8.06741C10.7906 21.0605 12.3706 19.0867 12.3706 16.787Z"
            fill="#0050C9"></path>
        <path
            d="M197.212 187.013C196.738 187.013 196.264 186.826 195.902 186.463L193.736 184.294C193.011 183.568 193.011 182.385 193.736 181.659C194.461 180.933 195.641 180.933 196.366 181.659L198.532 183.828C199.257 184.555 199.257 185.737 198.532 186.463C198.169 186.836 197.686 187.013 197.212 187.013ZM189.135 178.922C188.661 178.922 188.187 178.735 187.825 178.372L183.884 174.425C183.159 173.698 183.159 172.516 183.884 171.79C184.609 171.064 185.79 171.064 186.514 171.79L190.455 175.737C191.18 176.464 191.18 177.646 190.455 178.372C190.083 178.735 189.609 178.922 189.135 178.922ZM179.274 169.043C178.8 169.043 178.326 168.857 177.964 168.494L174.023 164.546C173.298 163.82 173.298 162.637 174.023 161.911C174.748 161.185 175.928 161.185 176.653 161.911L180.594 165.859C181.319 166.585 181.319 167.768 180.594 168.494C180.232 168.866 179.748 169.043 179.274 169.043ZM169.423 159.165C168.949 159.165 168.475 158.978 168.112 158.615L164.171 154.668C163.446 153.941 163.446 152.759 164.171 152.033C164.896 151.306 166.077 151.306 166.802 152.033L170.742 155.98C171.467 156.707 171.467 157.889 170.742 158.615C170.371 158.988 169.897 159.165 169.423 159.165ZM159.561 149.295C159.087 149.295 158.614 149.109 158.251 148.746L154.31 144.798C153.585 144.072 153.585 142.89 154.31 142.163C155.035 141.437 156.216 141.437 156.941 142.163L160.881 146.111C161.606 146.837 161.606 148.02 160.881 148.746C160.51 149.109 160.035 149.295 159.561 149.295ZM149.7 139.417C149.226 139.417 148.752 139.231 148.39 138.868L144.449 134.92C143.724 134.194 143.724 133.011 144.449 132.285C145.174 131.559 146.355 131.559 147.079 132.285L151.02 136.233C151.745 136.959 151.745 138.141 151.02 138.868C150.658 139.24 150.174 139.417 149.7 139.417ZM139.849 129.538C139.375 129.538 138.901 129.352 138.538 128.989L134.597 125.041C133.873 124.315 133.873 123.133 134.597 122.406C135.322 121.68 136.503 121.68 137.228 122.406L141.168 126.354C141.893 127.08 141.893 128.263 141.168 128.989C140.797 129.361 140.323 129.538 139.849 129.538ZM129.988 119.669C129.514 119.669 129.04 119.483 128.677 119.12L124.736 115.172C124.011 114.446 124.011 113.263 124.736 112.537C125.461 111.811 126.642 111.811 127.367 112.537L131.307 116.485C132.032 117.211 132.032 118.394 131.307 119.12C130.936 119.483 130.462 119.669 129.988 119.669ZM120.127 109.791C119.653 109.791 119.179 109.604 118.816 109.241L114.875 105.294C114.15 104.567 114.15 103.385 114.875 102.659C115.6 101.932 116.781 101.932 117.506 102.659L121.446 106.606C122.171 107.333 122.171 108.515 121.446 109.241C121.084 109.614 120.601 109.791 120.127 109.791ZM110.275 99.912C109.801 99.912 109.327 99.7258 108.964 99.3627L105.024 95.415C104.299 94.6888 104.299 93.5063 105.024 92.7801C105.749 92.0539 106.929 92.0539 107.654 92.7801L111.595 96.7278C112.319 97.454 112.319 98.6364 111.595 99.3627C111.223 99.7351 110.749 99.912 110.275 99.912ZM100.414 90.0428C99.9397 90.0428 99.4657 89.8566 99.1032 89.4934L95.1625 85.5457C94.4376 84.8195 94.4376 83.6371 95.1625 82.9109C95.8874 82.1846 97.0678 82.1846 97.7927 82.9109L101.733 86.8585C102.458 87.5848 102.458 88.7672 101.733 89.4934C101.362 89.8566 100.888 90.0428 100.414 90.0428ZM90.5526 80.1642C90.0786 80.1642 89.6046 79.978 89.2421 79.6149L85.3014 75.6672C84.5765 74.941 84.5765 73.7585 85.3014 73.0323C86.0264 72.3061 87.2067 72.3061 87.9317 73.0323L91.8724 76.98C92.5973 77.7062 92.5973 78.8887 91.8724 79.6149C91.5099 79.9873 91.0266 80.1642 90.5526 80.1642ZM80.7008 70.295C80.2268 70.295 79.7528 70.1088 79.3904 69.7457L75.4496 65.798C74.7247 65.0718 74.7247 63.8893 75.4496 63.1631C76.1746 62.4369 77.3549 62.4369 78.0799 63.1631L82.0206 67.1108C82.7455 67.837 82.7455 69.0194 82.0206 69.7457C81.6488 70.1088 81.1748 70.295 80.7008 70.295ZM70.8398 60.4165C70.3658 60.4165 69.8918 60.2302 69.5293 59.8671L65.5886 55.9194C64.8636 55.1932 64.8636 54.0108 65.5886 53.2845C66.3135 52.5583 67.4939 52.5583 68.2188 53.2845L72.1595 57.2322C72.8845 57.9585 72.8845 59.1409 72.1595 59.8671C71.7878 60.2302 71.3138 60.4165 70.8398 60.4165ZM60.9787 50.5379C60.5047 50.5379 60.0307 50.3517 59.6682 49.9886L55.7275 46.0409C55.0026 45.3147 55.0026 44.1322 55.7275 43.406C56.4525 42.6798 57.6328 42.6798 58.3578 43.406L62.2985 47.3537C63.0234 48.0799 63.0234 49.2624 62.2985 49.9886C61.936 50.361 61.4527 50.5379 60.9787 50.5379ZM51.1269 40.6594C50.6529 40.6594 50.1789 40.4732 49.8164 40.1101L45.8757 36.1624C45.1508 35.4361 45.1508 34.2537 45.8757 33.5275C46.6007 32.8012 47.781 32.8012 48.506 33.5275L52.4467 37.4752C53.1716 38.2014 53.1716 39.3838 52.4467 40.1101C52.0749 40.4825 51.6009 40.6594 51.1269 40.6594Z"
            fill="#0050C9"></path>
        <path d="M207.021 192.339L204.393 194.972L226.297 216.915L228.925 214.281L207.021 192.339Z"
              fill="#0050C9"></path>
        <path
            d="M199.368 187.31C201.246 191.416 203.058 197.021 203.355 201.323L206.543 194.498L213.356 191.305C209.053 191.007 203.458 189.191 199.368 187.31Z"
            fill="#0050C9"></path>
        <path d="M37.3438 27.6339L15.9859 6.22882H0V2.50458H17.5194L39.974 24.999L37.3438 27.6339Z"
              fill="#0050C9"></path>
        <path
            d="M45.0023 32.6709C40.9129 30.7902 35.3178 28.9746 31.0146 28.6766L37.8272 25.4831L41.0151 18.6584C41.3125 22.9693 43.1249 28.5742 45.0023 32.6709Z"
            fill="#0050C9"></path>
        <path
            d="M81.6396 11.7686L24.1461 69.3732C23.0215 72.0826 22.0084 74.8572 21.1162 77.6783L89.9299 8.73334C87.1138 9.63647 84.3534 10.6513 81.6396 11.7686Z"
            fill="#0050C9"></path>
        <path
            d="M111.641 4.24566L16.6267 99.4279C16.4408 101.309 16.3107 103.199 16.2178 105.098L117.301 3.836C115.405 3.9291 113.518 4.05945 111.641 4.24566Z"
            fill="#0050C9"></path>
        <path
            d="M133.993 4.38531L16.7666 121.82C16.9432 123.384 17.1384 124.93 17.38 126.475L138.641 4.99981C137.107 4.75774 135.555 4.55291 133.993 4.38531Z"
            fill="#0050C9"></path>
        <path
            d="M152.684 8.18402L20.5586 140.543C20.9582 141.884 21.3858 143.216 21.8319 144.528L156.671 9.46888C155.351 9.01266 154.022 8.58438 152.684 8.18402Z"
            fill="#0050C9"></path>
        <path
            d="M168.846 14.5245L26.8965 156.735C27.4727 157.908 28.0675 159.071 28.681 160.217L172.322 16.3122C171.169 15.6977 170.017 15.1018 168.846 14.5245Z"
            fill="#0050C9"></path>
        <path
            d="M182.983 22.8948L35.2432 170.896C35.9588 171.929 36.7023 172.944 37.4552 173.95L186.031 25.1107C185.027 24.3565 184.014 23.6117 182.983 22.8948Z"
            fill="#0050C9"></path>
        <path
            d="M195.353 33.034L45.3643 183.288C46.2193 184.191 47.093 185.067 47.9759 185.933L197.992 35.6503C197.128 34.7658 196.245 33.8906 195.353 33.034Z"
            fill="#0050C9"></path>
        <path
            d="M206.022 44.8677L57.1768 193.977C58.1619 194.75 59.1657 195.495 60.1788 196.23L208.271 47.8751C207.546 46.8602 206.794 45.8547 206.022 44.8677Z"
            fill="#0050C9"></path>
        <path
            d="M214.973 58.4333L70.7188 202.943C71.8526 203.576 72.9865 204.191 74.1483 204.777L216.804 61.8596C216.218 60.7051 215.605 59.5599 214.973 58.4333Z"
            fill="#0050C9"></path>
        <path
            d="M222.009 73.9075L86.166 209.991C87.4672 210.457 88.7684 210.904 90.0974 211.323L223.338 77.8459C222.92 76.5238 222.474 75.211 222.009 73.9075Z"
            fill="#0050C9"></path>
        <path
            d="M226.721 91.7187L103.945 214.712C105.46 214.972 106.975 215.205 108.509 215.41L227.408 96.2995C227.213 94.7539 226.981 93.2363 226.721 91.7187Z"
            fill="#0050C9"></path>
        <path
            d="M227.966 118.263C228.106 116.429 228.199 114.576 228.245 112.714L124.895 216.248C126.753 216.201 128.603 216.108 130.434 215.969L227.966 118.263Z"
            fill="#0050C9"></path>
        <path
            d="M159.283 209.6L221.618 147.145C222.576 144.575 223.44 141.949 224.202 139.286L151.438 212.179C154.097 211.425 156.708 210.559 159.283 209.6Z"
            fill="#0050C9"></path>
        <path
            d="M122.199 220C61.6475 220 12.3887 170.654 12.3887 109.995C12.3887 49.3368 61.6475 0 122.199 0C182.75 0 232.009 49.3461 232.009 110.005C232.009 170.663 182.741 220 122.199 220ZM122.199 7.44847C65.7462 7.44847 19.824 53.4521 19.824 110.005C19.824 166.557 65.7462 212.561 122.199 212.561C178.651 212.561 224.574 166.557 224.574 110.005C224.574 53.4521 178.642 7.44847 122.199 7.44847Z"
            fill="#0050C9"></path>
    </g>
    <defs>
        <clipPath id="clip0">
            <rect width="232" height="220" fill="white"></rect>
        </clipPath>
    </defs>
</svg>
