<svg width="100%" height="90" viewBox="0 0 32 53" fill="none" xmlns="http://www.w3.org/2000/svg"><path d="M23.3316 0C20.489 0 17.9202 1.45298 16.4195 3.92482L2.63065 28.4306C2.24223 29.0153 1.90678 29.6266 1.59781 30.2645L1.46539 30.5038L1.48305 30.5126C0.538488 32.5238 0 34.7652 0 37.1396C0 45.8221 7.04449 52.8921 15.6956 52.8921C24.3467 52.8921 31.3912 45.8221 31.3912 37.1396V8.08886C31.3912 3.63245 27.7807 0 23.3316 0ZM15.6956 50.8101C8.18326 50.8101 2.0745 44.6792 2.0745 37.1396C2.0745 35.0399 2.56003 33.0642 3.40748 31.2834L4.42267 29.476C6.87676 25.8524 11.0169 23.4692 15.6956 23.4692C23.208 23.4692 29.3167 29.6001 29.3167 37.1396C29.3167 44.6792 23.208 50.8101 15.6956 50.8101ZM15.6956 21.3872C12.7913 21.3872 10.0724 22.2023 7.73305 23.5844L18.2115 4.97912C19.3061 3.17175 21.2217 2.08202 23.3316 2.08202C26.6331 2.08202 29.3167 4.77535 29.3167 8.08886V29.3431C26.6155 24.5944 21.5307 21.3872 15.6956 21.3872Z" fill="#1A47B0"></path></svg>
