<svg width="191" height="220" viewBox="0 0 191 220" fill="none" xmlns="http://www.w3.org/2000/svg">
    <path d="M3.72168 3.73242V4.6842L4.67059 3.73242H3.72168Z" fill="#0050C9"></path>
    <path d="M21.9184 3.73242L3.72168 21.9841V27.2655L27.1839 3.73242H21.9184Z" fill="#0050C9"></path>
    <path d="M44.4316 3.73242L3.72168 44.5654V49.8375L49.6878 3.73242H44.4316Z" fill="#0050C9"></path>
    <path d="M66.9356 3.73242L3.72168 67.1374V72.4188L72.2011 3.73242H66.9356Z" fill="#0050C9"></path>
    <path d="M89.4489 3.73242L3.72168 89.7188V95.0002L94.7144 3.73242H89.4489Z" fill="#0050C9"></path>
    <path d="M111.953 3.73242L3.72168 112.291V117.572L117.218 3.73242H111.953Z" fill="#0050C9"></path>
    <path d="M134.466 3.73242L3.72168 134.872V140.154L139.732 3.73242H134.466Z" fill="#0050C9"></path>
    <path d="M156.979 3.73242L3.72168 157.453V162.726L162.236 3.73242H156.979Z" fill="#0050C9"></path>
    <path d="M179.483 3.73242L3.72168 180.025V185.307L184.749 3.73242H179.483Z" fill="#0050C9"></path>
    <path d="M187.28 23.7757V18.4943L18.4395 187.845H23.705L187.28 23.7757Z" fill="#0050C9"></path>
    <path d="M46.2176 187.845L187.279 46.357V41.0756L40.9521 187.845H46.2176Z" fill="#0050C9"></path>
    <path d="M68.722 187.845L187.28 68.929V63.6569L63.4658 187.845H68.722Z" fill="#0050C9"></path>
    <path d="M91.2352 187.845L187.279 91.5104V86.2289L85.9697 187.845H91.2352Z" fill="#0050C9"></path>
    <path d="M113.739 187.845L187.279 114.082V108.81L108.482 187.845H113.739Z" fill="#0050C9"></path>
    <path d="M136.252 187.845L187.279 136.664V131.382L130.986 187.845H136.252Z" fill="#0050C9"></path>
    <path d="M158.766 187.845L187.279 159.245V153.964L153.5 187.845H158.766Z" fill="#0050C9"></path>
    <path d="M181.27 187.845L187.28 181.817V176.545L176.014 187.845H181.27Z" fill="#0050C9"></path>
    <path d="M191 191.577H0V0H191V191.577ZM7.4424 184.112H183.558V7.4649H7.4424V184.112Z" fill="#0050C9"></path>
    <path d="M5.58155 187.845H1.86035V217.779H5.58155V187.845Z" fill="#0050C9"></path>
    <path d="M189.139 187.845H185.418V217.779H189.139V187.845Z" fill="#0050C9"></path>
    <path d="M176.813 211.033H14.2148V214.765H176.813V211.033Z" fill="#0050C9"></path>
    <path
        d="M5.22852 212.899C9.45208 214.476 14.699 217.154 17.955 220L15.3967 212.899L17.955 205.798C14.699 208.644 9.45208 211.322 5.22852 212.899Z"
        fill="#0050C9"></path>
    <path
        d="M185.791 212.899C181.567 214.476 176.321 217.154 173.064 220L175.623 212.899L173.064 205.798C176.321 208.644 181.567 211.322 185.791 212.899Z"
        fill="#0050C9"></path>
    <path
        d="M99.3188 208.971L98.5466 206.731H92.4345L91.6624 208.971H87.1318L92.9648 193.416H97.9884L103.849 208.971H99.3188ZM95.4859 197.381L93.5137 203.232H97.4675L95.4859 197.381Z"
        fill="#0050C9"></path>
</svg>
