<svg width="270" height="220" viewBox="0 0 270 220" fill="none" xmlns="http://www.w3.org/2000/svg">
    <path
        d="M122.008 30.3448L121.199 28.0076H114.798L113.99 30.3448H109.245L115.354 14.1109H120.615L126.753 30.3448H122.008ZM117.994 18.2497L115.929 24.3557H120.069L117.994 18.2497Z"
        fill="#0050C9"></path>
    <path
        d="M240.411 123.775V107.541H249.618C252.833 107.541 254.372 109.635 254.372 111.68C254.372 113.696 253.125 115.059 251.596 115.4C253.32 115.663 254.684 117.318 254.684 119.363C254.684 121.72 253.106 123.765 249.91 123.765H240.411V123.775ZM250.105 112.41C250.105 111.631 249.521 111.066 248.673 111.066H244.61V113.764H248.673C249.521 113.774 250.105 113.219 250.105 112.41ZM250.417 118.789C250.417 117.99 249.832 117.328 248.809 117.328H244.601V120.25H248.809C249.813 120.25 250.417 119.665 250.417 118.789Z"
        fill="#0050C9"></path>
    <path
        d="M83.9434 153.497L86.1647 150.361C87.3338 151.529 89.1362 152.503 91.3478 152.503C92.78 152.503 93.6568 151.938 93.6568 151.159C93.6568 148.949 84.45 150.721 84.45 144.469C84.45 141.742 86.7687 139.308 90.9289 139.308C93.5302 139.308 95.8002 140.087 97.5247 141.567L95.2352 144.557C93.8712 143.437 92.098 142.882 90.4905 142.882C89.2726 142.882 88.7368 143.369 88.7368 144.05C88.7368 146.115 97.9144 144.605 97.9144 150.643C97.9144 153.906 95.508 156.067 91.1432 156.067C87.8599 156.077 85.5704 155.055 83.9434 153.497Z"
        fill="#0050C9"></path>
    <path d="M236.017 189.168H228.223V43.0437H7.79418V189.168H0V35.253H236.017V189.168Z" fill="#0050C9"></path>
    <path d="M234.069 191.116H0V177.258H234.069V191.116ZM5.84563 187.221H230.172V181.154H5.84563V187.221Z"
          fill="#0050C9"></path>
    <path d="M14.733 177.718L4.66113 187.785L7.41676 190.539L17.4886 180.472L14.733 177.718Z" fill="#0050C9"></path>
    <path d="M32.5142 177.718L22.4424 187.786L25.198 190.54L35.2698 180.473L32.5142 177.718Z" fill="#0050C9"></path>
    <path d="M50.5201 177.724L40.4482 187.791L43.2039 190.545L53.2757 180.478L50.5201 177.724Z" fill="#0050C9"></path>
    <path d="M68.3013 177.724L58.2295 187.792L60.9851 190.546L71.057 180.479L68.3013 177.724Z" fill="#0050C9"></path>
    <path d="M84.5709 177.724L74.499 187.792L77.2547 190.546L87.3265 180.479L84.5709 177.724Z" fill="#0050C9"></path>
    <path d="M102.359 177.718L92.2871 187.785L95.0427 190.54L105.115 180.473L102.359 177.718Z" fill="#0050C9"></path>
    <path d="M120.365 177.723L110.293 187.791L113.049 190.545L123.12 180.478L120.365 177.723Z" fill="#0050C9"></path>
    <path d="M138.146 177.724L128.074 187.792L130.83 190.546L140.902 180.479L138.146 177.724Z" fill="#0050C9"></path>
    <path d="M155.652 177.722L145.58 187.789L148.336 190.543L158.408 180.476L155.652 177.722Z" fill="#0050C9"></path>
    <path d="M173.433 177.722L163.361 187.79L166.117 190.544L176.189 180.477L173.433 177.722Z" fill="#0050C9"></path>
    <path d="M191.447 177.721L181.375 187.788L184.131 190.542L194.202 180.475L191.447 177.721Z" fill="#0050C9"></path>
    <path d="M209.227 177.722L199.155 187.789L201.911 190.543L211.983 180.476L209.227 177.722Z" fill="#0050C9"></path>
    <path d="M225.498 177.721L215.426 187.789L218.181 190.543L228.253 180.476L225.498 177.721Z" fill="#0050C9"></path>
    <path d="M5.84533 2.96045H1.94824V39.1483H5.84533V2.96045Z" fill="#0050C9"></path>
    <path d="M234.069 2.96045H230.172V39.1483H234.069V2.96045Z" fill="#0050C9"></path>
    <path d="M270 37.2007H232.12V41.096H270V37.2007Z" fill="#0050C9"></path>
    <path d="M270 187.221H232.12V191.116H270V187.221Z" fill="#0050C9"></path>
    <path d="M221.657 5.46326H14.5752V9.35861H221.657V5.46326Z" fill="#0050C9"></path>
    <path
        d="M5.17383 7.41092C9.59702 9.0567 15.0919 11.8516 18.5019 14.8218L15.8226 7.41092L18.4921 0C15.0919 2.97021 9.59702 5.76513 5.17383 7.41092Z"
        fill="#0050C9"></path>
    <path
        d="M231.068 7.41092C226.645 9.0567 221.15 11.8516 217.74 14.8218L220.419 7.41092L217.75 0C221.15 2.97021 226.645 5.76513 231.068 7.41092Z"
        fill="#0050C9"></path>
    <path d="M264.291 50.0456H260.394V178.242H264.291V50.0456Z" fill="#0050C9"></path>
    <path
        d="M262.342 40.6383C260.695 45.0595 257.899 50.552 254.928 53.9604L262.342 51.2824L269.756 53.9604C266.785 50.552 263.988 45.0595 262.342 40.6383Z"
        fill="#0050C9"></path>
    <path
        d="M262.342 187.639C260.695 183.218 257.899 177.726 254.928 174.317L262.342 176.995L269.756 174.317C266.785 177.726 263.988 183.208 262.342 187.639Z"
        fill="#0050C9"></path>
    <path d="M75.6324 137.866H71.7354V168.309H75.6324V137.866Z" fill="#0050C9"></path>
    <path
        d="M73.6837 177.716C72.0372 173.295 69.2411 167.802 66.2695 164.394L73.6837 167.072L81.098 164.394C78.1264 167.802 75.3205 173.295 73.6837 177.716Z"
        fill="#0050C9"></path>
    <path d="M75.6324 200.134H71.7354V219.99H75.6324V200.134Z" fill="#0050C9"></path>
    <path
        d="M73.6837 190.736C72.0372 195.157 69.2411 200.65 66.2695 204.058L73.6837 201.38L81.098 204.058C78.1264 200.65 75.3205 195.157 73.6837 190.736Z"
        fill="#0050C9"></path>
</svg>
