<svg width="100%" height="90" viewBox="0 0 34 53" fill="none" xmlns="http://www.w3.org/2000/svg">
    <path
        d="M26.8757 31.5838H7.1241C6.41931 31.5838 5.84961 32.1599 5.84961 32.8726V46.8115C5.84961 47.5242 6.41931 48.1003 7.1241 48.1003H26.8757C27.5805 48.1003 28.1502 47.5242 28.1502 46.8115V32.8726C28.1502 32.1599 27.5805 31.5838 26.8757 31.5838ZM26.9755 46.8115C26.9755 46.8709 26.9286 46.9125 26.8757 46.9125H7.1241C7.07124 46.9125 7.02425 46.865 7.02425 46.8115V32.8726C7.02425 32.8132 7.07124 32.7716 7.1241 32.7716H26.8757C26.9286 32.7716 26.9755 32.8191 26.9755 32.8726V46.8115V46.8115Z"
        fill="#1A47B0"></path>
    <path
        d="M31.2337 0H18.6592C17.7136 0 16.8444 0.481062 16.3216 1.30659L0.646053 26.9751L0.687165 26.9989C0.264294 27.4621 0 28.0738 0 28.7509V50.4165C0 51.8419 1.14528 53 2.55485 53H31.4393C32.8489 53 33.9941 51.8419 33.9941 50.4165V32.3678V28.7509V2.79729C34 1.25314 32.7608 0 31.2337 0ZM18.3068 2.5716C18.3831 2.44688 18.5182 2.37562 18.6592 2.37562H31.2337C31.4628 2.37562 31.6507 2.56567 31.6507 2.79729V26.1852C31.5802 26.1793 31.5156 26.1615 31.4452 26.1615H3.89981L18.3068 2.5716ZM31.6507 50.4165C31.6507 50.5353 31.5567 50.6244 31.4452 50.6244H2.55485C2.43738 50.6244 2.34928 50.5294 2.34928 50.4165V28.7509C2.34928 28.6321 2.44325 28.543 2.55485 28.543H31.4393C31.5567 28.543 31.6448 28.6381 31.6448 28.7509V32.3678V50.4165H31.6507Z"
        fill="#1A47B0"></path>
</svg>
