<svg width="317" height="220" viewBox="0 0 317 220" fill="none" xmlns="http://www.w3.org/2000/svg">
    <g clip-path="url(#clip0)">
        <path d="M277.095 179.071H32.9326V0H277.084V179.071H277.095ZM39.8127 172.185H270.204V6.88648H39.8127V172.185Z"
              fill="#0050C9"></path>
        <path d="M43.9641 3.44324L36.373 11.0413V17.5376L50.4543 3.44324H43.9641Z" fill="#0050C9"></path>
        <path d="M71.7138 3.44324L36.373 38.8168V45.3015L78.204 3.44324H71.7138Z" fill="#0050C9"></path>
        <path d="M69.8103 37.451H71.966L105.942 3.44324H99.4634L36.373 66.5808V73.077L69.8103 39.6087V37.451Z"
              fill="#0050C9"></path>
        <path d="M69.8103 60.8879L36.373 94.3562V100.841L69.8103 67.3842V60.8879Z" fill="#0050C9"></path>
        <path d="M99.7158 37.451L133.692 3.44324H127.202L93.2256 37.451H99.7158Z" fill="#0050C9"></path>
        <path d="M69.8103 88.6634L36.373 122.132V128.616L69.8103 95.1482V88.6634Z" fill="#0050C9"></path>
        <path d="M127.465 37.451L161.43 3.44324H154.951L120.975 37.451H127.465Z" fill="#0050C9"></path>
        <path d="M155.203 37.451L189.18 3.44324H182.689L148.725 37.451H155.203Z" fill="#0050C9"></path>
        <path d="M69.8103 116.427L36.373 149.896V156.392L69.8103 122.924V116.427Z" fill="#0050C9"></path>
        <path d="M72.3902 141.62L38.4141 175.628H44.9043L78.869 141.62H72.3902Z" fill="#0050C9"></path>
        <path d="M182.953 37.451L216.929 3.44324H210.439L176.463 37.451H182.953Z" fill="#0050C9"></path>
        <path d="M100.128 141.62L66.1631 175.628H72.6418L106.618 141.62H100.128Z" fill="#0050C9"></path>
        <path d="M210.692 37.451L244.668 3.44324H238.189L204.213 37.451H210.692Z" fill="#0050C9"></path>
        <path d="M238.441 37.451L272.418 3.44324H265.927L231.951 37.451H238.441Z" fill="#0050C9"></path>
        <path d="M127.878 141.62L93.9014 175.628H100.392L134.368 141.62H127.878Z" fill="#0050C9"></path>
        <path d="M240.219 63.436L273.656 29.9792V23.4829L240.219 56.9512V63.436Z" fill="#0050C9"></path>
        <path d="M155.628 141.62L121.651 175.628H128.13L162.106 141.62H155.628Z" fill="#0050C9"></path>
        <path d="M183.366 141.62L149.39 175.628H155.88L189.856 141.62H183.366Z" fill="#0050C9"></path>
        <path d="M240.219 91.2114L273.656 57.7431V51.2584L240.219 84.7152V91.2114Z" fill="#0050C9"></path>
        <path d="M211.116 141.62L177.14 175.628H183.63L217.595 141.62H211.116Z" fill="#0050C9"></path>
        <path d="M240.219 118.987L273.656 85.5186V79.0223L240.219 112.491V118.987Z" fill="#0050C9"></path>
        <path d="M240.218 141.62H238.853L204.889 175.628H211.367L273.655 113.294V106.798L240.218 140.266V141.62Z"
              fill="#0050C9"></path>
        <path d="M239.117 175.628L273.655 141.058V134.562L232.627 175.628H239.117Z" fill="#0050C9"></path>
        <path d="M266.856 175.628L273.656 168.833V162.337L260.377 175.628H266.856Z" fill="#0050C9"></path>
        <path d="M243.658 145.064H66.3701V34.0077H243.658V145.064ZM73.2502 138.177H236.778V40.8942H73.2502V138.177Z"
              fill="#0050C9"></path>
        <path d="M38.6658 175.628H34.0791V217.567H38.6658V175.628Z" fill="#0050C9"></path>
        <path d="M275.949 175.628H271.362V217.567H275.949V175.628Z" fill="#0050C9"></path>
        <path d="M317 173.333H273.655V177.924H317V173.333Z" fill="#0050C9"></path>
        <path d="M317 1.14777H273.655V5.73875H317V1.14777Z" fill="#0050C9"></path>
        <path d="M260.412 208.97H49.4912V213.561H260.412V208.97Z" fill="#0050C9"></path>
        <path
            d="M38.4141 211.266C43.62 213.205 50.0873 216.499 54.1007 220L50.9473 211.266L54.1007 202.531C50.0873 206.032 43.62 209.337 38.4141 211.266Z"
            fill="#0050C9"></path>
        <path
            d="M271.477 211.266C266.271 213.205 259.803 216.499 255.79 220L258.943 211.266L255.79 202.531C259.803 206.032 266.271 209.337 271.477 211.266Z"
            fill="#0050C9"></path>
        <path d="M310.005 16.2865H305.418V162.532H310.005V16.2865Z" fill="#0050C9"></path>
        <path
            d="M307.712 5.19928C305.774 10.41 302.483 16.8833 298.985 20.9004L307.712 17.7441L316.438 20.9004C312.94 16.8833 309.65 10.41 307.712 5.19928Z"
            fill="#0050C9"></path>
        <path
            d="M307.712 173.608C305.774 168.397 302.483 161.924 298.985 157.907L307.712 161.063L316.438 157.907C312.94 161.924 309.65 168.397 307.712 173.608Z"
            fill="#0050C9"></path>
        <path d="M21.9131 111.377H0V115.968H21.9131V111.377Z" fill="#0050C9"></path>
        <path
            d="M32.9903 113.673C27.7844 115.612 21.3171 118.907 17.3037 122.407L20.4571 113.673L17.3037 104.938C21.3171 108.439 27.7729 111.745 32.9903 113.673Z"
            fill="#0050C9"></path>
        <path d="M124.232 111.377H83.708V115.968H124.232V111.377Z" fill="#0050C9"></path>
        <path
            d="M72.6309 113.673C77.8368 115.612 84.3041 118.907 88.3175 122.407L85.1641 113.673L88.3175 104.938C84.3041 108.439 77.8483 111.745 72.6309 113.673Z"
            fill="#0050C9"></path>
        <path
            d="M282.932 95.1711V76.0382H293.768C297.552 76.0382 299.352 78.5059 299.352 80.9161C299.352 83.292 297.896 84.8988 296.084 85.3005C298.114 85.6104 299.719 87.5616 299.719 89.9718C299.719 92.7494 297.861 95.1597 294.1 95.1597H282.932V95.1711ZM294.33 81.7769C294.33 80.8587 293.642 80.1931 292.644 80.1931H287.862V83.3723H292.644C293.642 83.3838 294.33 82.7181 294.33 81.7769ZM294.708 89.2947C294.708 88.3535 294.02 87.5731 292.816 87.5731H287.862V91.0163H292.816C293.986 91.0163 294.708 90.3277 294.708 89.2947Z"
            fill="#0050C9"></path>
        <path
            d="M159.732 204.528L158.781 201.774H151.247L150.295 204.528H144.711L151.901 185.395H158.093L165.317 204.528H159.732ZM154.997 190.273L152.566 197.47H157.439L154.997 190.273Z"
            fill="#0050C9"></path>
        <path
            d="M100.507 103.114L103.11 99.4178C104.486 100.795 106.607 101.943 109.21 101.943C110.896 101.943 111.928 101.277 111.928 100.359C111.928 97.7536 101.092 99.8425 101.092 92.4739C101.092 89.2602 103.809 86.3909 108.717 86.3909C111.779 86.3909 114.45 87.3091 116.48 89.0536L113.785 92.5772C112.18 91.2573 110.093 90.6031 108.201 90.6031C106.768 90.6031 106.137 91.177 106.137 91.9804C106.137 94.4136 116.939 92.6346 116.939 99.7506C116.939 103.596 114.106 106.144 108.969 106.144C105.116 106.155 102.422 104.95 100.507 103.114Z"
            fill="#0050C9"></path>
    </g>
    <defs>
        <clipPath id="clip0">
            <rect width="317" height="220" fill="white"></rect>
        </clipPath>
    </defs>
</svg>
