<svg width="163" height="220" viewBox="0 0 163 220" fill="none" xmlns="http://www.w3.org/2000/svg">
    <path d="M18.5889 19.666L3.77246 34.5505V39.9001L23.927 19.666H18.5889Z" fill="#0050C9"></path>
    <path d="M41.4123 19.666L8.03516 53.1749H13.3732L46.7409 19.666H41.4123Z" fill="#0050C9"></path>
    <path d="M64.2271 19.666L30.8594 53.1749H36.188L69.5652 19.666H64.2271Z" fill="#0050C9"></path>
    <path d="M87.05 19.666L53.6729 53.1749H59.0109L92.3881 19.666H87.05Z" fill="#0050C9"></path>
    <path d="M109.874 19.666L76.4971 53.1749H81.8257L115.203 19.666H109.874Z" fill="#0050C9"></path>
    <path d="M129.887 22.4781L96.5195 55.9871V61.3368L129.887 27.8373V22.4781Z" fill="#0050C9"></path>
    <path d="M20.9373 154.781L3.77246 172.004V177.363L26.266 154.781H20.9373Z" fill="#0050C9"></path>
    <path d="M129.887 45.3918L96.5195 78.8913V84.2505L129.887 50.7415V45.3918Z" fill="#0050C9"></path>
    <path d="M49.0896 154.781H43.7515L10.3838 188.281H15.7124L49.0896 154.781Z" fill="#0050C9"></path>
    <path d="M129.887 68.2961L96.5195 101.805V107.164L129.887 73.6552V68.2961Z" fill="#0050C9"></path>
    <path d="M38.5363 188.281L71.904 154.781H66.5754L33.1982 188.281H38.5363Z" fill="#0050C9"></path>
    <path d="M129.887 91.2098L96.5195 124.719V130.068L129.887 96.569V91.2098Z" fill="#0050C9"></path>
    <path d="M61.3501 188.281L94.7273 154.781H89.3892L56.0215 188.281H61.3501Z" fill="#0050C9"></path>
    <path d="M129.887 114.124L96.5195 147.623V152.982L129.887 119.473V114.124Z" fill="#0050C9"></path>
    <path d="M84.174 188.281L129.887 142.387V137.028L78.8359 188.281H84.174Z" fill="#0050C9"></path>
    <path d="M106.997 188.281L129.887 165.291V159.941L101.659 188.281H106.997Z" fill="#0050C9"></path>
    <path d="M129.811 188.281L129.887 188.205V182.846L124.482 188.281H129.811Z" fill="#0050C9"></path>
    <path
        d="M147.948 113.3V106.956H141.422V113.3H137.366V97.5158H141.422V103.405H147.948V97.5158H152.003V113.3H147.948Z"
        fill="#0050C9"></path>
    <path
        d="M60.1904 210.465V194.681H69.1029C72.2152 194.681 73.696 196.717 73.696 198.705C73.696 200.665 72.4982 201.991 71.0081 202.322C72.6774 202.578 73.9978 204.188 73.9978 206.176C73.9978 208.467 72.4699 210.456 69.3764 210.456H60.1904V210.465ZM69.5745 199.416C69.5745 198.658 69.0086 198.109 68.1881 198.109H64.2553V200.732H68.1881C69.0086 200.741 69.5745 200.192 69.5745 199.416ZM69.8763 205.617C69.8763 204.841 69.3104 204.197 68.3202 204.197H64.2459V207.038H68.3202C69.2916 207.038 69.8763 206.47 69.8763 205.617Z"
        fill="#0050C9"></path>
    <path
        d="M65.0469 133.979L67.1878 130.93C68.3195 132.066 70.0643 133.013 72.2052 133.013C73.5916 133.013 74.4404 132.464 74.4404 131.706C74.4404 129.557 65.5279 131.28 65.5279 125.202C65.5279 122.55 67.7631 120.183 71.7996 120.183C74.3178 120.183 76.5153 120.941 78.1846 122.38L75.9682 125.287C74.6479 124.198 72.9314 123.658 71.3752 123.658C70.1963 123.658 69.6776 124.132 69.6776 124.794C69.6776 126.802 78.5618 125.334 78.5618 131.205C78.5618 134.377 76.2323 136.479 72.0071 136.479C68.8382 136.488 66.6219 135.494 65.0469 133.979Z"
        fill="#0050C9"></path>
    <path d="M20.6544 84.6198V72.377H16.25V68.8358H29.0953V72.3865H24.7098V84.6198H20.6544Z" fill="#0050C9"></path>
    <path d="M163 186.387H129.887V190.174H163V186.387Z" fill="#0050C9"></path>
    <path d="M163 17.7818H129.887V21.5692H163V17.7818Z" fill="#0050C9"></path>
    <path d="M5.65921 188.281H1.88672V218.125H5.65921V188.281Z" fill="#0050C9"></path>
    <path d="M132.132 188.281H128.359V218.125H132.132V188.281Z" fill="#0050C9"></path>
    <path
        d="M133.659 192.068H0V150.984H92.7467V56.9624H0V15.8881H133.659V192.068ZM7.54499 184.493H126.114V23.4629H7.54499V49.3971H100.292V158.569H7.54499V184.493Z"
        fill="#0050C9"></path>
    <path d="M157.559 29.9299H153.786V178.026H157.559V29.9299Z" fill="#0050C9"></path>
    <path
        d="M155.672 20.7833C154.078 25.082 151.372 30.4222 148.495 33.7362L155.672 31.1324L162.849 33.7362C159.973 30.4317 157.266 25.0915 155.672 20.7833Z"
        fill="#0050C9"></path>
    <path
        d="M155.672 187.173C154.078 182.874 151.372 177.534 148.495 174.22L155.672 176.824L162.849 174.22C159.973 177.534 157.266 182.865 155.672 187.173Z"
        fill="#0050C9"></path>
    <path d="M119.201 210.901H13.9111V214.688H119.201V210.901Z" fill="#0050C9"></path>
    <path
        d="M4.80078 212.794C9.08256 214.395 14.4018 217.112 17.7027 220L15.1091 212.794L17.7027 205.589C14.4018 208.477 9.08256 211.204 4.80078 212.794Z"
        fill="#0050C9"></path>
    <path
        d="M128.302 212.794C124.021 214.395 118.701 217.112 115.4 220L117.994 212.794L115.4 205.589C118.701 208.477 124.021 211.204 128.302 212.794Z"
        fill="#0050C9"></path>
    <path d="M84.1929 138.363H63.9629V142.15H84.1929V138.363Z" fill="#0050C9"></path>
    <path
        d="M93.3033 140.257C89.0215 141.857 83.7023 144.574 80.4014 147.462L82.995 140.257L80.4014 133.051C83.7023 135.939 89.0215 138.656 93.3033 140.257Z"
        fill="#0050C9"></path>
    <path d="M150.674 138.363H142.355V142.15H150.674V138.363Z" fill="#0050C9"></path>
    <path
        d="M133.254 140.257C137.536 141.857 142.855 144.574 146.156 147.462L143.562 140.257L146.156 133.051C142.855 135.939 137.536 138.656 133.254 140.257Z"
        fill="#0050C9"></path>
    <path d="M38.0742 0H34.3018V6.87411H38.0742V0Z" fill="#0050C9"></path>
    <path
        d="M36.1879 16.0207C34.594 11.722 31.8873 6.38178 29.0107 3.06781L36.1879 5.68111L43.3651 3.07728C40.4886 6.38178 37.7818 11.722 36.1879 16.0207Z"
        fill="#0050C9"></path>
    <path d="M38.0742 65.4177H34.3018V86.8733H38.0742V65.4177Z" fill="#0050C9"></path>
    <path
        d="M36.1879 56.2711C37.7818 60.5698 40.4886 65.9101 43.3651 69.224L36.1879 66.6202L29.0107 69.224C31.8873 65.9101 34.6035 60.5698 36.1879 56.2711Z"
        fill="#0050C9"></path>
</svg>
