<svg width="100%" height="90" viewBox="0 0 30 53" fill="none" xmlns="http://www.w3.org/2000/svg"><path d="M14.4489 0L0 22.5583V53H30V22.8779V21.8037V0H14.4489ZM2.0567 23.9521H27.8218C27.3532 25.9585 25.6176 27.4588 23.5435 27.4588H5.43246V47.3538H23.5435C25.6176 47.3538 27.3445 48.8541 27.8131 50.8605H2.0567V23.9521ZM23.5435 45.2142H7.66271L14.9262 29.5983H23.5435C25.2444 29.5983 26.7891 28.9059 27.9433 27.7873V47.0342C26.7891 45.9067 25.2444 45.2142 23.5435 45.2142ZM7.48915 41.459V29.5983H13.9803L7.48915 41.459ZM2.95054 21.8126L15.5511 2.13953H27.9433V21.8126H2.95054Z" fill="#1A47B0"></path></svg>
