<svg width="251" height="220" viewBox="0 0 251 220" fill="none" xmlns="http://www.w3.org/2000/svg">
    <path d="M64.0182 196.607L95.2178 165.163C94.2462 164.619 93.3825 164.075 92.5188 163.531L61.5352 194.649C62.3988 195.302 63.1545 195.954 64.0182 196.607Z" fill="#0050C9"></path>
    <path d="M210.3 44.7181L179.316 75.9446C179.856 76.815 180.396 77.7943 180.936 78.6647L212.135 47.2206C211.488 46.4589 210.948 45.5885 210.3 44.7181Z" fill="#0050C9"></path>
    <path d="M111.844 171.691C110.656 171.365 109.469 171.147 108.389 170.712L75.5703 203.788C76.5419 204.332 77.5135 204.768 78.4852 205.312L111.844 171.691Z" fill="#0050C9"></path>
    <path d="M219.369 58.8625L186.55 91.9387C186.874 93.1355 187.198 94.2236 187.521 95.4204L220.988 61.6914C220.448 60.7122 219.909 59.8417 219.369 58.8625Z" fill="#0050C9"></path>
    <path d="M133.651 172.997C132.031 173.215 130.52 173.323 128.901 173.323L91.4395 211.078C92.519 211.513 93.5986 211.84 94.7861 212.166L133.651 172.997Z" fill="#0050C9"></path>
    <path d="M226.493 74.9654L189.14 112.611C189.032 114.243 188.924 115.875 188.816 117.399L227.681 78.2295C227.249 77.1415 226.925 76.0534 226.493 74.9654Z" fill="#0050C9"></path>
    <path d="M231.675 97.4877C231.567 96.182 231.352 94.8764 231.136 93.5707L174.674 150.475C172.191 153.412 169.492 156.241 166.469 158.744L110.008 215.648C111.303 215.865 112.599 215.974 113.894 216.192L231.675 97.4877Z" fill="#0050C9"></path>
    <path d="M231.892 120.554C232 118.922 232.216 117.399 232.216 115.767L131.924 216.845C133.543 216.736 135.055 216.627 136.674 216.518L231.892 120.554Z" fill="#0050C9"></path>
    <path d="M224.011 151.672C224.983 149.387 225.846 146.993 226.71 144.599L160.532 211.296C162.907 210.534 165.282 209.555 167.549 208.576H167.657L224.011 151.672Z" fill="#0050C9"></path>
    <path d="M79.9962 152.76L49.4443 183.551C50.0921 184.204 50.7398 184.857 51.3876 185.509C51.4955 185.618 51.4955 185.618 51.6035 185.727L82.1553 154.936C81.3996 154.283 80.6439 153.521 79.9962 152.76Z" fill="#0050C9"></path>
    <path d="M40.9163 173.323L72.1159 141.879C71.5761 140.9 71.0363 140.03 70.6045 139.05L39.0811 170.821C39.6208 171.691 40.2686 172.562 40.9163 173.323Z" fill="#0050C9"></path>
    <path d="M155.135 53.7488C156.106 54.2928 157.078 54.728 157.942 55.272L189.141 23.9367C188.278 23.2839 187.414 22.7399 186.55 22.087L155.135 53.7488Z" fill="#0050C9"></path>
    <path d="M32.0636 158.961L65.4223 125.341C65.0985 124.144 64.8825 122.948 64.6666 121.751L30.6602 156.024C30.984 157.003 31.5238 157.982 32.0636 158.961Z" fill="#0050C9"></path>
    <path d="M137.97 47.8734C139.157 48.091 140.345 48.4174 141.532 48.635L174.891 15.0148C173.919 14.4708 172.948 14.0356 171.976 13.6004L137.97 47.8734Z" fill="#0050C9"></path>
    <path d="M155.134 7.18103L114.866 47.7646C116.594 47.4382 118.213 47.2206 119.94 47.003L158.481 8.16026C157.401 7.83385 156.322 7.50744 155.134 7.18103Z" fill="#0050C9"></path>
    <path d="M25.2617 142.532L63.8023 103.689C64.0182 101.949 64.2342 100.208 64.558 98.5757L24.29 139.159C24.6139 140.247 24.9378 141.444 25.2617 142.532Z" fill="#0050C9"></path>
    <path d="M135.594 3.59052L20.7275 119.466C20.8355 120.772 20.9435 122.186 21.1594 123.492L139.588 4.02573C138.293 3.80812 136.997 3.69932 135.594 3.59052Z" fill="#0050C9"></path>
    <path d="M21.2673 95.638C21.0514 97.27 20.8355 98.9021 20.7275 100.643L117.025 3.59052C115.406 3.69932 113.679 3.91692 112.059 4.13453L21.2673 95.638Z" fill="#0050C9"></path>
    <path d="M86.4737 10.9891C85.9339 11.2067 85.5021 11.4243 84.9623 11.642C82.6952 12.6212 80.536 13.6004 78.3769 14.6884L31.6315 61.8002C30.5519 63.9763 29.5803 66.1523 28.6087 68.4372C28.3928 68.9812 28.1769 69.4164 27.9609 69.9604L86.4737 10.9891Z" fill="#0050C9"></path>
    <path d="M126.309 220C111.627 220 97.2688 217.062 83.7741 211.296C70.8193 205.747 59.0519 197.804 49.1199 187.685C39.0799 177.567 31.199 165.816 25.6932 152.76C19.9715 139.159 17.0566 124.797 17.0566 109.891C17.0566 94.9852 19.9715 80.6231 25.6932 67.0228C31.199 53.9664 39.0799 42.1068 49.1199 32.0969C59.1599 22.087 70.8193 14.1444 83.7741 8.70425C97.2688 2.93769 111.519 0 126.309 0C141.099 0 155.35 2.93769 168.844 8.70425C181.799 14.2532 193.566 22.1958 203.499 32.3145C213.539 42.4332 221.419 54.184 226.925 67.2404C232.647 80.8408 235.562 95.2028 235.562 110.109C235.562 125.015 232.647 139.377 226.925 152.977C221.419 166.034 213.539 177.893 203.499 187.903C193.458 198.022 181.799 205.964 168.844 211.513C155.35 217.062 140.991 220 126.309 220ZM126.309 6.31058C112.383 6.31058 98.8881 9.03066 86.2571 14.4708C73.95 19.6934 62.9384 27.2008 53.5461 36.6667C44.0459 46.1325 36.5969 57.2305 31.4149 69.634C26.0171 82.4728 23.3182 96.0732 23.3182 110C23.3182 123.927 26.0171 137.636 31.4149 150.366C36.5969 162.77 44.0459 173.867 53.4382 183.333C62.9384 192.908 73.8421 200.307 86.1492 205.529C98.8881 210.969 112.383 213.689 126.201 213.689C140.02 213.689 153.622 210.969 166.253 205.529C178.56 200.307 189.572 192.799 198.964 183.333C208.465 173.759 215.806 162.77 220.988 150.366C226.385 137.527 229.084 123.927 229.084 110C229.084 96.0732 226.385 82.364 220.988 69.634C215.806 57.2305 208.357 46.1325 198.964 36.6667C189.464 27.092 178.56 19.6934 166.253 14.4708C153.622 9.03066 140.128 6.31058 126.309 6.31058ZM126.309 176.479C89.9277 176.479 60.3474 146.667 60.3474 110C60.3474 73.3333 89.9277 43.5213 126.309 43.5213C162.691 43.5213 192.271 73.3333 192.271 110C192.271 146.667 162.691 176.479 126.309 176.479ZM126.309 49.8318C93.3823 49.8318 66.6089 76.815 66.6089 110C66.6089 143.185 93.3823 170.168 126.309 170.168C159.236 170.168 186.009 143.185 186.009 110C186.009 76.815 159.236 49.8318 126.309 49.8318Z" fill="#0050C9"></path>
    <path d="M230.812 216.845C230.38 216.845 230.056 216.736 229.732 216.41L209.004 195.519C208.357 194.866 208.357 193.887 209.004 193.343C209.652 192.69 210.624 192.69 211.164 193.343L231.891 214.233C232.539 214.886 232.539 215.865 231.891 216.41C231.567 216.736 231.136 216.845 230.812 216.845Z" fill="#0050C9"></path>
    <path d="M203.391 187.794C205.334 192.146 207.277 198.022 207.601 202.483L210.948 195.302L218.073 191.929C213.539 191.602 207.709 189.753 203.391 187.794Z" fill="#0050C9"></path>
    <path d="M53.2225 37.9723C52.7906 37.9723 52.4668 37.8635 52.1429 37.5371L50.1997 35.5786C49.5519 34.9258 49.5519 33.9466 50.1997 33.4026C50.8474 32.7498 51.819 32.7498 52.3588 33.4026L54.302 35.361C54.9498 36.0139 54.9498 36.9931 54.302 37.5371C54.0861 37.8635 53.6543 37.9723 53.2225 37.9723Z" fill="#0050C9"></path>
    <path d="M193.782 179.634C193.35 179.634 193.027 179.525 192.703 179.199L188.708 175.173C188.061 174.52 188.061 173.541 188.708 172.997C189.356 172.344 190.328 172.344 190.867 172.997L194.862 177.023C195.51 177.676 195.51 178.655 194.862 179.199C194.538 179.416 194.106 179.634 193.782 179.634ZM184.39 170.168C183.958 170.168 183.634 170.059 183.31 169.733L179.316 165.707C178.668 165.054 178.668 164.075 179.316 163.531C179.964 162.878 180.935 162.878 181.475 163.531L185.47 167.557C186.117 168.21 186.117 169.189 185.47 169.733C185.146 169.951 184.822 170.168 184.39 170.168ZM174.998 160.702C174.566 160.702 174.242 160.593 173.918 160.267L169.924 156.241C169.276 155.589 169.276 154.609 169.924 154.065C170.572 153.412 171.543 153.412 172.083 154.065L176.077 158.091C176.725 158.744 176.725 159.723 176.077 160.267C175.861 160.593 175.43 160.702 174.998 160.702ZM165.606 151.236C165.174 151.236 164.85 151.128 164.526 150.801L160.532 146.775C159.884 146.123 159.884 145.143 160.532 144.599C161.179 143.947 162.151 143.947 162.691 144.599L166.685 148.625C167.333 149.278 167.333 150.257 166.685 150.801C166.469 151.128 166.037 151.236 165.606 151.236ZM156.321 141.879C155.889 141.879 155.566 141.771 155.242 141.444L151.247 137.418C150.6 136.766 150.6 135.786 151.247 135.242C151.895 134.59 152.867 134.59 153.406 135.242L157.401 139.268C158.049 139.921 158.049 140.9 157.401 141.444C157.077 141.662 156.645 141.879 156.321 141.879ZM146.929 132.413C146.497 132.413 146.173 132.305 145.849 131.978L141.855 127.953C141.207 127.3 141.207 126.32 141.855 125.776C142.503 125.124 143.474 125.124 144.014 125.776L148.009 129.802C148.656 130.455 148.656 131.434 148.009 131.978C147.685 132.196 147.361 132.413 146.929 132.413ZM137.537 122.948C137.105 122.948 136.781 122.839 136.457 122.512L132.463 118.487C131.815 117.834 131.815 116.855 132.463 116.311C133.11 115.658 134.082 115.658 134.622 116.311L138.616 120.336C139.264 120.989 139.264 121.968 138.616 122.512C138.4 122.839 137.969 122.948 137.537 122.948ZM128.144 113.482C127.713 113.482 127.389 113.373 127.065 113.047L123.07 109.021C122.423 108.368 122.423 107.389 123.07 106.845C123.718 106.192 124.69 106.192 125.23 106.845L129.224 110.87C129.872 111.523 129.872 112.502 129.224 113.047C129.008 113.373 128.576 113.482 128.144 113.482ZM118.86 104.125C118.428 104.125 118.104 104.016 117.781 103.689L113.786 99.6637C113.138 99.0109 113.138 98.0317 113.786 97.4877C114.434 96.8348 115.405 96.8348 115.945 97.4877L119.94 101.513C120.587 102.166 120.587 103.145 119.94 103.689C119.616 103.907 119.184 104.125 118.86 104.125ZM109.468 94.6588C109.036 94.6588 108.712 94.55 108.388 94.2236L104.394 90.1978C103.746 89.545 103.746 88.5658 104.394 88.0218C105.042 87.369 106.013 87.369 106.553 88.0218L110.547 92.0475C111.195 92.7003 111.195 93.6795 110.547 94.2236C110.224 94.4412 109.9 94.6588 109.468 94.6588ZM100.076 85.1929C99.6438 85.1929 99.3199 85.0841 98.996 84.7577L95.0016 80.732C94.3539 80.0791 94.3539 79.0999 95.0016 78.5559C95.6493 77.9031 96.621 77.9031 97.1607 78.5559L101.155 82.5816C101.803 83.2344 101.803 84.2137 101.155 84.7577C100.939 85.0841 100.507 85.1929 100.076 85.1929ZM90.6833 75.727C90.2515 75.727 89.9276 75.6182 89.6037 75.2918L85.6093 71.2661C84.9616 70.6133 84.9616 69.634 85.6093 69.09C86.2571 68.4372 87.2287 68.4372 87.7685 69.09L91.7629 73.1157C92.4106 73.7686 92.4106 74.7478 91.7629 75.2918C91.547 75.6182 91.1151 75.727 90.6833 75.727ZM81.399 66.3699C80.9672 66.3699 80.6433 66.2611 80.3194 65.9347L76.325 61.909C75.6773 61.2562 75.6773 60.277 76.325 59.733C76.9728 59.0801 77.9444 59.0801 78.4842 59.733L82.4786 63.7587C83.1263 64.4115 83.1263 65.3907 82.4786 65.9347C82.1547 66.1523 81.7229 66.3699 81.399 66.3699ZM72.0067 56.9041C71.5749 56.9041 71.251 56.7953 70.9272 56.4689L66.9328 52.3343C66.285 51.6815 66.285 50.7023 66.9328 50.1583C67.5805 49.5055 68.5521 49.5055 69.0919 50.1583L73.0863 54.184C73.7341 54.8368 73.7341 55.816 73.0863 56.3601C72.7624 56.6865 72.4386 56.9041 72.0067 56.9041ZM62.6145 47.4382C62.1826 47.4382 61.8588 47.3294 61.5349 47.003L57.5405 42.9773C56.8928 42.3244 56.8928 41.3452 57.5405 40.8012C58.1882 40.1484 59.1599 40.1484 59.6996 40.8012L63.694 44.8269C64.3418 45.4797 64.3418 46.459 63.694 47.003C63.4781 47.3294 63.0463 47.4382 62.6145 47.4382Z" fill="#0050C9"></path>
    <path d="M201.124 186.924C200.692 186.924 200.368 186.815 200.044 186.489L198.101 184.53C197.453 183.877 197.453 182.898 198.101 182.354C198.749 181.701 199.72 181.701 200.26 182.354L202.203 184.313C202.851 184.965 202.851 185.945 202.203 186.489C201.88 186.815 201.448 186.924 201.124 186.924Z" fill="#0050C9"></path>
    <path d="M42.535 27.2008C42.1032 27.2008 41.7793 27.092 41.4554 26.7656L19.2163 4.24331C18.5685 3.5905 18.5685 2.61127 19.2163 2.06725C19.864 1.41443 20.8356 1.41443 21.3754 2.06725L43.6146 24.4807C44.2623 25.1335 44.2623 26.1128 43.6146 26.6568C43.2907 26.9832 42.8589 27.2008 42.535 27.2008Z" fill="#0050C9"></path>
    <path d="M49.1201 32.3145C44.8018 30.356 38.9721 28.3976 34.5459 28.0712L41.6711 24.6983L45.0177 17.5173C45.2336 22.087 47.1769 27.9624 49.1201 32.3145Z" fill="#0050C9"></path>
    <path d="M20.2959 4.78731H1.5114C0.647742 4.78731 0 4.02569 0 3.15526C0 2.28484 0.647742 1.63202 1.5114 1.63202H20.188C21.0516 1.63202 21.6994 2.28484 21.6994 3.15526C21.6994 4.02569 21.1596 4.78731 20.2959 4.78731Z" fill="#0050C9"></path>
    <path d="M149.089 87.1514C148.657 87.1514 148.333 87.0426 148.009 86.7161C147.362 86.0633 147.362 85.0841 148.009 84.5401L160.208 72.2453C160.856 71.5925 161.828 71.5925 162.367 72.2453C163.015 72.8981 163.015 73.8774 162.367 74.4214L150.168 86.7161C149.845 87.0426 149.521 87.1514 149.089 87.1514Z" fill="#0050C9"></path>
    <path d="M167.873 66.6964C163.555 68.6548 157.725 70.6133 153.299 70.9397L160.424 74.3126L163.771 81.4936C163.987 76.8151 165.93 70.9397 167.873 66.6964Z" fill="#0050C9"></path>
    <path d="M199.612 36.2315C199.18 36.2315 198.857 36.1227 198.533 35.7963C197.885 35.1434 197.885 34.1642 198.533 33.6202L200.476 31.6617C201.124 31.0089 202.095 31.0089 202.635 31.6617C203.283 32.3146 203.283 33.2938 202.635 33.8378L200.692 35.7963C200.476 36.0139 200.044 36.2315 199.612 36.2315Z" fill="#0050C9"></path>
    <path d="M175.97 60.0594C175.538 60.0594 175.214 59.9506 174.89 59.6242C174.242 58.9713 174.242 57.9921 174.89 57.4481L178.237 54.0752C178.885 53.4224 179.856 53.4224 180.396 54.0752C181.044 54.728 181.044 55.7072 180.396 56.2513L177.049 59.6242C176.833 59.8418 176.402 60.0594 175.97 60.0594ZM183.851 52.1167C183.419 52.1167 183.095 52.0079 182.771 51.6815C182.123 51.0287 182.123 50.0495 182.771 49.5055L186.118 46.1326C186.765 45.4797 187.737 45.4797 188.277 46.1326C188.925 46.7854 188.925 47.7646 188.277 48.3086L184.93 51.6815C184.714 51.8991 184.282 52.1167 183.851 52.1167ZM191.731 44.1741C191.3 44.1741 190.976 44.0653 190.652 43.7389C190.004 43.0861 190.004 42.1068 190.652 41.5628L193.998 38.1899C194.646 37.5371 195.618 37.5371 196.158 38.1899C196.805 38.8428 196.805 39.822 196.158 40.366L192.811 43.7389C192.595 43.9565 192.163 44.1741 191.731 44.1741Z" fill="#0050C9"></path>
    <path d="M169.492 66.5876C169.06 66.5876 168.736 66.4787 168.413 66.1523C167.765 65.4995 167.765 64.5203 168.413 63.9763L170.356 62.0178C171.004 61.365 171.975 61.365 172.515 62.0178C173.163 62.6706 173.163 63.6499 172.515 64.1939L170.572 66.1523C170.248 66.3699 169.924 66.5876 169.492 66.5876Z" fill="#0050C9"></path>
    <path d="M209.329 26.4392C208.897 26.4392 208.573 26.3304 208.249 26.0039C207.602 25.3511 207.602 24.3719 208.249 23.8279L229.733 2.17606C230.057 1.84965 230.381 1.74084 230.813 1.74084H249.489C250.353 1.74084 251 2.39366 251 3.26409C251 4.13451 250.353 4.78733 249.489 4.78733H231.46L210.409 26.0039C210.193 26.2216 209.761 26.4392 209.329 26.4392Z" fill="#0050C9"></path>
    <path d="M202.743 31.5529C204.686 27.2008 206.63 21.3254 206.953 16.8645L210.3 24.0455L217.425 27.4184C212.891 27.636 206.953 29.5945 202.743 31.5529Z" fill="#0050C9"></path>
    <path d="M235.455 27.636C234.16 27.3096 233.188 26.7656 232.324 26.2216L233.728 23.1751C234.483 23.7191 235.347 24.1543 236.427 24.4807C237.506 24.8071 238.478 25.0247 239.557 25.0247C240.745 25.0247 241.501 24.8071 242.04 24.4807C242.58 24.1543 242.904 23.7191 242.904 23.0663C242.904 22.6311 242.796 22.3046 242.472 21.9782C242.148 21.6518 241.716 21.4342 241.177 21.3254C240.637 21.2166 239.989 20.999 239.126 20.7814C237.83 20.455 236.75 20.1286 235.887 19.8022C235.023 19.4758 234.267 18.9317 233.728 18.2789C233.188 17.6261 232.864 16.6469 232.864 15.45C232.864 14.4708 233.188 13.4916 233.728 12.73C234.267 11.8595 235.131 11.2067 236.211 10.7715C237.29 10.3363 238.694 10.0099 240.205 10.0099C241.285 10.0099 242.364 10.1187 243.444 10.4451C244.523 10.6627 245.387 11.0979 246.251 11.6419L245.063 14.6884C243.444 13.818 241.824 13.274 240.205 13.274C239.126 13.274 238.262 13.4916 237.722 13.818C237.182 14.1444 236.966 14.6884 236.966 15.2324C236.966 15.8853 237.29 16.3205 237.938 16.5381C238.586 16.8645 239.557 17.0821 240.745 17.4085C242.04 17.7349 243.12 18.0613 243.984 18.3877C244.847 18.7141 245.603 19.2582 246.143 19.911C246.79 20.5638 247.006 21.543 247.006 22.7399C247.006 23.7191 246.683 24.6983 246.143 25.4599C245.603 26.3304 244.739 26.9832 243.66 27.4184C242.58 27.8536 241.177 28.18 239.665 28.18C238.046 28.18 236.75 27.9624 235.455 27.636Z" fill="#0050C9"></path>
    <path d="M4 26.5208V11H10.5116C15.3953 11 18.9023 13.9328 18.9023 18.7464C18.9023 23.56 15.3953 26.5208 10.5302 26.5208H4ZM14.8093 18.7464C14.8093 16.3536 13.3674 14.4915 10.5302 14.4915H8V23.0293H10.5116C13.2279 23.0293 14.8093 21.0461 14.8093 18.7464Z" fill="#0050C9"></path></svg>
