<svg width="213" height="220" viewBox="0 0 213 220" fill="none" xmlns="http://www.w3.org/2000/svg">
    <g clip-path="url(#clip0)">
        <path d="M32.9388 3.70215L25.9629 10.6899V15.9285L38.1684 3.70215H32.9388Z" fill="#0050C9"></path>
        <path d="M58.6618 3.70215H55.2986L25.9629 33.0879V38.3172L58.6618 5.57173V3.70215Z" fill="#0050C9"></path>
        <path d="M58.6618 22.7312L25.9629 55.4767V60.7152L58.6618 27.9605V22.7312Z" fill="#0050C9"></path>
        <path d="M58.6618 45.1199L25.9629 77.8746V83.1131L58.6618 50.3584V45.1199Z" fill="#0050C9"></path>
        <path d="M58.6618 67.5179L25.9629 100.273V105.502L58.6618 72.7564V67.5179Z" fill="#0050C9"></path>
        <path d="M58.6618 89.9159L25.9629 122.661V127.9L58.6618 95.1451V89.9159Z" fill="#0050C9"></path>
        <path d="M58.6618 112.305L25.9629 145.059V150.289L58.6618 117.543V112.305Z" fill="#0050C9"></path>
        <path d="M58.6618 134.703L25.9629 167.457V172.687L58.6618 139.941V134.703Z" fill="#0050C9"></path>
        <path d="M66.3772 154.602H61.1476L28.458 187.347H33.6784L66.3772 154.602Z" fill="#0050C9"></path>
        <path d="M56.0382 187.347L88.7371 154.602H83.5075L50.8086 187.347H56.0382Z" fill="#0050C9"></path>
        <path d="M78.3883 187.347L111.087 154.602H105.867L73.168 187.347H78.3883Z" fill="#0050C9"></path>
        <path d="M100.748 187.347L133.447 154.602H128.217L95.5186 187.347H100.748Z" fill="#0050C9"></path>
        <path d="M123.108 187.347L155.797 154.602H150.577L117.878 187.347H123.108Z" fill="#0050C9"></path>
        <path d="M145.459 187.347L178.158 154.602H172.928L140.238 187.347H145.459Z" fill="#0050C9"></path>
        <path d="M167.818 187.347L200.517 154.602H195.288L162.589 187.347H167.818Z" fill="#0050C9"></path>
        <path d="M190.178 187.347L209.304 168.189V162.959L184.948 187.347H190.178Z" fill="#0050C9"></path>
        <path d="M209.304 187.347V185.348L207.299 187.347H209.304Z" fill="#0050C9"></path>
        <path
            d="M213 191.049H22.2676V0H62.3581V150.899H213V191.049ZM29.6592 183.645H205.609V158.294H54.9664V7.40429H29.6592V183.645Z"
            fill="#0050C9"></path>
        <path d="M27.8111 187.347H24.1152V217.881H27.8111V187.347Z" fill="#0050C9"></path>
        <path d="M211.152 187.347H207.456V217.881H211.152V187.347Z" fill="#0050C9"></path>
        <path d="M198.956 211.106H36.0996V214.808H198.956V211.106Z" fill="#0050C9"></path>
        <path
            d="M27.1738 212.957C31.3686 214.521 36.5797 217.177 39.8136 220L37.2727 212.957L39.8136 205.913C36.5797 208.736 31.3686 211.402 27.1738 212.957Z"
            fill="#0050C9"></path>
        <path
            d="M207.872 212.957C203.677 214.521 198.466 217.177 195.232 220L197.773 212.957L195.232 205.913C198.466 208.736 203.677 211.402 207.872 212.957Z"
            fill="#0050C9"></path>
        <path d="M13.7947 39.8721H0V43.5743H13.7947V39.8721Z" fill="#0050C9"></path>
        <path
            d="M22.7198 41.7232C18.5251 43.2874 13.3139 45.9436 10.0801 48.7665L12.621 41.7232L10.0801 34.6799C13.3139 37.5028 18.5251 40.1683 22.7198 41.7232Z"
            fill="#0050C9"></path>
        <path d="M95.6113 39.8721H70.877V43.5743H95.6113V39.8721Z" fill="#0050C9"></path>
        <path
            d="M61.9609 41.7232C66.1557 43.2874 71.3668 45.9436 74.6007 48.7665L72.0598 41.7232L74.6007 34.6799C71.3668 37.5028 66.1557 40.1683 61.9609 41.7232Z"
            fill="#0050C9"></path>
        <path
            d="M76.4854 34.3466L78.5827 31.3664C79.6915 32.4771 81.4008 33.4026 83.4982 33.4026C84.8564 33.4026 85.688 32.8658 85.688 32.1253C85.688 30.0244 76.9566 31.7089 76.9566 25.7669C76.9566 23.1754 79.1464 20.8616 83.1009 20.8616C85.5679 20.8616 87.7207 21.602 89.3561 23.0088L87.1848 25.8502C85.8912 24.7858 84.2096 24.2583 82.6851 24.2583C81.5302 24.2583 81.022 24.7211 81.022 25.3689C81.022 27.3311 89.7257 25.8965 89.7257 31.6348C89.7257 34.7354 87.4435 36.7901 83.3042 36.7901C80.1997 36.7993 78.0284 35.8275 76.4854 34.3466Z"
            fill="#0050C9"></path>
        <path
            d="M121.325 209.634L120.558 207.413H114.487L113.72 209.634H109.221L115.014 194.205H120.003L125.824 209.634H121.325ZM117.509 198.139L115.55 203.942H119.477L117.509 198.139Z"
            fill="#0050C9"></path>
    </g>
    <defs>
        <clipPath id="clip0">
            <rect width="213" height="220" fill="white"></rect>
        </clipPath>
    </defs>
</svg>
