<svg width="100%" height="90" viewBox="0 0 31 53" fill="none" xmlns="http://www.w3.org/2000/svg"><path d="M26.7495 13.2988H17.9884V4.27906C17.9884 1.91759 16.0784 0 13.7379 0H13.1281L0 22.5938V53H31V17.5779C31 15.2164 29.09 13.2988 26.7495 13.2988ZM26.7495 15.4384C27.9242 15.4384 28.8747 16.3972 28.8747 17.5779V47.0342C27.6821 45.9156 26.0859 45.2231 24.3283 45.2231H7.73879V45.0988L16.2219 15.4384H26.7495ZM14.3029 2.21943C15.1996 2.46801 15.8632 3.29363 15.8632 4.27906V14.8258L7.73879 40.9618V28.5241C7.73879 25.4169 5.63147 22.8069 2.77987 22.0434L14.3029 2.21943ZM2.12525 24.0853C4.116 24.5735 5.61354 26.3668 5.61354 28.5241V47.3538H24.3283C26.4715 47.3538 28.256 48.8541 28.7402 50.8605H2.12525V24.0853Z" fill="#1A47B0"></path></svg>
